<?xml version="1.0" encoding="utf-8"?>
<!-- Generator: Adobe Illustrator 25.2.1, SVG Export Plug-In . SVG Version: 6.00 Build 0)  -->
<svg version="1.1" id="Layer_1" xmlns="http://www.w3.org/2000/svg" xmlns:xlink="http://www.w3.org/1999/xlink" x="0px" y="0px"
	 viewBox="0 0 279.5 279.5" style="enable-background:new 0 0 279.5 279.5;" xml:space="preserve">
<style type="text/css">
	.st0{fill:#BDBDBD;}
</style>
<g>
	<path class="st0" d="M139.8,0C62.6,0,0,62.6,0,139.8C0,217,62.6,279.5,139.8,279.5c77.2,0,139.8-62.6,139.8-139.8
		C279.5,62.6,216.9,0,139.8,0z M139.8,253.3c-62.7,0-113.6-50.8-113.6-113.6S77,26.2,139.8,26.2c62.7,0,113.6,50.8,113.6,113.5
		S202.5,253.3,139.8,253.3z M192.3,122.3h-35.1V87.4c0-4.8-3.9-8.7-8.7-8.7H131c-4.8,0-8.7,3.9-8.7,8.7v34.9H87.4
		c-4.8,0-8.8,3.9-8.8,8.7v17.5c0,4.8,3.9,8.7,8.8,8.7h34.9v34.9c0,4.8,3.9,8.7,8.7,8.7h17.5c4.8,0,8.7-3.9,8.7-8.7v-34.9h35.1
		c4.8,0,8.8-3.9,8.8-8.7V131C201.1,126.2,197.2,122.3,192.3,122.3z"/>
</g>
</svg>
